<?xml version="1.0" encoding="UTF-8"?>
<svg id="Layer_1" data-name="Layer 1" xmlns="http://www.w3.org/2000/svg" viewBox="0 0 87.78 90.01">
  <defs>
    <style>
      .cls-1 {
        fill: #070707;
      }

      .cls-2 {
        fill: #0a0a0a;
      }

      .cls-3 {
        fill: none;
        stroke: #000;
        stroke-miterlimit: 10;
        stroke-width: 3.4px;
      }
    </style>
  </defs>
  <path class="cls-1" d="M34.63,19.93l-18.42-1.31-3.77,19.21,18.42,1.31-.54,3.09-18.5-1.31-5.31,27.36-3.43-.24L13.4,15.3l21.85,1.55-.62,3.08Z"/>
  <path class="cls-1" d="M36.95,38.91c9.21,0,14.15,4.05,14.15,11.72,0,5.31-2.65,10.02-6.85,12.16-2.14,1.03-6.04,1.69-10.47,1.69h-4.42l-2.87,23.58h-3.17l6.04-49.16h7.59ZM29.73,61.61h4.64c4.57,0,7.08-.52,8.99-1.77,2.87-1.84,4.5-5.16,4.5-9.07,0-5.75-3.68-8.99-10.32-8.99h-5.38l-2.43,19.83Z"/>
  <path class="cls-1" d="M65.02,1.73c7,0,10.82,1.04,14.14,3.95,4.3,3.74,6.93,10.19,6.93,17.06,0,7.49-3.05,14.7-8.18,19.49-4.65,4.3-9.22,5.76-18.24,5.76h-9.57L55.8,1.73h9.22ZM53.44,45.28h6.45c8.11,0,12.62-1.53,16.64-5.69,4.02-4.16,6.52-10.54,6.52-16.71s-2.08-11.72-5.83-15.05c-2.84-2.5-6.1-3.4-12.27-3.4h-6.52l-4.99,40.84Z"/>
  <path class="cls-2" d="M87.78,90.01H0V0h87.78v90.01ZM3.87,86.14h80.04V3.87H3.87v82.27Z"/>
  <rect class="cls-2" x="24.7" y="77.8" width="62.06" height="1.68"/>
  <rect class="cls-2" x="26.45" y="68.61" width="59.65" height="1.68"/>
  <rect class="cls-2" x="44.51" y="59.42" width="41.59" height="1.68"/>
  <line class="cls-3" x1="11.67" y1="32.94" x2="1.92" y2="83.33"/>
</svg>